# xmcd
#
# Track frame offsets: 
#        150
#        9090
#        19707
#        37937
#        47140
#        59850
#        76845
#        89315
#        99732
#        110335
#        124252
#        141795
#
# Disc length: 2081 seconds
#
# Revision: 0
# Processed by: cddbd v1.5.2PL0 Copyright (c) Steve Scherf et al.
# Submitted via: ExactAudioCopy v0.95b4
#
DISCID=94081f0c
DTITLE=Various Artist - Country Roads
DYEAR=1900
DGENRE=Country
TTITLE0=Conway Twitty - The Road That I Walk
TTITLE1=Faron Young - Memphis
TTITLE2=Alan Borders - Waycross Georgia Blues
TTITLE3=Willie Nelson - One Step Beyond
TTITLE4=Carl Perkins - Hallelujah Special
TTITLE5=David Speggle - Dim Lights and Candles
TTITLE6=George Jones - White Ligntning
TTITLE7=Frankie Lane - Rawhide
TTITLE8=Waylon Jennings - Sally Was a Good Girl
TTITLE9=Jerry Lee Lewis - Cold, Cold Heart
TTITLE10=The Wilsons - Not a Day Goes By
TTITLE11=Joni Bishop - Everyday Miracles
EXTD=
EXTT0=
EXTT1=
EXTT2=
EXTT3=
EXTT4=
EXTT5=
EXTT6=
EXTT7=
EXTT8=
EXTT9=
EXTT10=
EXTT11=
PLAYORDER=
